<svg width="186" height="75" viewBox="0 0 186 75" fill="none" xmlns="http://www.w3.org/2000/svg">
<path d="M69.4074 19.1105C68.7259 19.1105 68.143 18.8618 67.6587 18.3645C67.1924 17.8671 66.9591 17.1306 66.9591 16.155C66.9591 15.9445 66.9681 15.7341 66.9861 15.5237C67.0219 15.2942 67.0668 15.0933 67.1206 14.9211C67.1744 14.7298 67.2372 14.5767 67.3089 14.462C67.3986 14.3472 67.4883 14.2899 67.578 14.2899C67.6676 14.2899 67.7483 14.3185 67.8201 14.376C67.9098 14.4333 68.0174 14.5002 68.143 14.5767C68.2865 14.6533 68.4749 14.7202 68.708 14.7777C68.9411 14.8351 69.2639 14.8637 69.6765 14.8637C70.663 14.8637 71.6764 14.7011 72.7168 14.376C73.7571 14.0316 74.6987 13.5534 75.5417 12.9412C76.4027 12.31 77.1022 11.5543 77.6403 10.6743C78.1963 9.79439 78.4744 8.79965 78.4744 7.69007C78.4744 7.28837 78.4116 6.89623 78.286 6.51364C78.1604 6.13105 77.9721 5.7962 77.721 5.50935C77.4699 5.20327 77.147 4.95462 76.7525 4.76326C76.3758 4.5719 75.9273 4.47628 75.4072 4.47628C73.9723 4.47628 72.654 4.81113 71.4522 5.48057C70.2684 6.15014 69.1923 7.05882 68.2237 8.2066C67.2551 9.33528 66.4032 10.6456 65.6677 12.1377C64.9503 13.6299 64.3494 15.2081 63.8651 16.8723C63.3808 18.5175 63.0131 20.1914 62.7621 21.8939C62.5109 23.5964 62.3854 25.2128 62.3854 26.7432C62.3854 28.5797 62.493 30.2822 62.7082 31.8509C62.9235 33.4003 63.2732 34.7395 63.7576 35.8682C64.2418 36.9967 64.8876 37.8863 65.6947 38.5366C66.5018 39.168 67.4973 39.4836 68.681 39.4836C69.7572 39.4836 70.7079 39.1967 71.5329 38.6228C72.3581 38.0298 73.0755 37.2358 73.6853 36.2411C74.3131 35.2463 74.8422 34.089 75.2727 32.7691C75.721 31.4301 76.1067 30.0049 76.4295 28.4936C76.7525 26.9823 77.0305 25.4233 77.2636 23.8164C77.4968 22.2095 77.7031 20.6408 77.8825 19.1105C77.9362 18.728 78.1963 18.441 78.6627 18.2496C79.129 18.0392 79.6223 17.934 80.1424 17.934C80.3576 17.934 80.5818 17.9628 80.8151 18.0201C81.0482 18.0775 81.2456 18.1636 81.407 18.2784C81.5863 18.3931 81.7119 18.5462 81.7836 18.7375C81.8733 18.9288 81.8912 19.1679 81.8374 19.4548C81.6939 20.22 81.5415 21.4348 81.38 23.0991C81.2186 24.7442 81.1379 26.7241 81.1379 29.0388C81.1379 30.971 81.1468 32.6352 81.1648 34.0317C81.2007 35.4282 81.2456 36.6334 81.2993 37.6472C81.3531 38.661 81.407 39.5123 81.4607 40.201C81.5145 40.8705 81.5684 41.4348 81.6222 41.8939C81.7298 42.0661 81.7836 42.2 81.7836 42.2957C81.7836 42.487 81.694 42.6687 81.5145 42.8409C81.3352 43.0131 81.111 43.1661 80.842 43.3C80.5729 43.4338 80.268 43.5391 79.9272 43.6157C79.6044 43.6922 79.2904 43.7304 78.9855 43.7304C78.5012 43.7304 78.1335 43.6252 77.8825 43.4147C77.6313 43.2043 77.4429 42.8505 77.3175 42.353C77.2098 41.8748 77.138 41.234 77.1022 40.4305C77.0663 39.6079 77.0305 38.6036 76.9946 37.4176C76.582 38.355 76.0708 39.2253 75.461 40.0288C74.8511 40.8322 74.1696 41.5305 73.4162 42.1235C72.663 42.7356 71.8378 43.214 70.9411 43.5582C70.0622 43.9025 69.1385 44.0748 68.1699 44.0748C66.6632 44.0748 65.2821 43.7687 64.0266 43.1565C62.7889 42.5444 61.7217 41.5592 60.8249 40.201C59.9281 38.8427 59.2286 37.0732 58.7264 34.8925C58.2421 32.6926 58 30.0144 58 26.8581C58 24.6964 58.1883 22.5347 58.5649 20.3731C58.9596 18.1922 59.5156 16.1071 60.2331 14.1176C60.9684 12.1282 61.8562 10.2726 62.8966 8.55087C63.9548 6.82926 65.1386 5.33709 66.448 4.07459C67.7574 2.81209 69.1832 1.81723 70.7258 1.09036C72.2863 0.363495 73.9365 0 75.6763 0C76.8063 0 77.8107 0.191236 78.6896 0.573829C79.5864 0.956423 80.3397 1.49205 80.9495 2.18072C81.5594 2.85029 82.0257 3.64413 82.3486 4.56235C82.6714 5.46148 82.8329 6.42757 82.8329 7.46051C82.8329 9.16302 82.4472 10.7317 81.676 12.1665C80.9048 13.582 79.8914 14.8063 78.6357 15.8394C77.3803 16.8723 75.9453 17.6758 74.331 18.2496C72.7168 18.8236 71.0756 19.1105 69.4074 19.1105ZM90.0433 24.5051V25.7963C91.2989 27.4223 92.4288 29.0962 93.4332 30.8179C94.4557 32.5204 95.3167 34.3186 96.0161 36.2124C96.7335 38.1063 97.2807 40.1053 97.6573 42.2095C98.0519 44.3139 98.2492 46.5808 98.2492 49.0102C98.2492 51.4588 98.0699 53.7161 97.7111 55.7821C97.3703 57.8672 96.877 59.6558 96.2313 61.148C95.6036 62.6592 94.8323 63.8357 93.9176 64.6774C93.0208 65.5191 92.0253 65.9399 90.9311 65.9399C89.9626 65.9399 89.1555 65.6817 88.5098 65.1652C87.8641 64.6678 87.3438 63.9983 86.9493 63.1566C86.5726 62.334 86.2946 61.3966 86.1152 60.3445C85.9538 59.2924 85.8731 58.2212 85.8731 57.1307V25.5094C85.8193 25.452 85.7565 25.385 85.6847 25.3086C85.631 25.2319 85.5772 25.1555 85.5233 25.0789C85.0929 24.6198 84.6983 24.199 84.3396 23.8164C83.9988 23.4147 83.8284 22.9747 83.8284 22.4965C83.8284 22.2095 83.927 21.9225 84.1243 21.6357C84.3216 21.3296 84.6445 21.1478 85.0929 21.0904C85.1825 21.0904 85.2902 21.0808 85.4158 21.0617C85.5412 21.0426 85.6938 21.0331 85.8731 21.0331V4.33279C85.8731 3.912 85.8373 3.57728 85.7654 3.3285C85.7117 3.07985 85.6489 2.88861 85.5772 2.75467C85.5233 2.60164 85.4605 2.4868 85.3888 2.41028C85.335 2.31466 85.3081 2.21904 85.3081 2.1233C85.3081 2.00859 85.3619 1.91297 85.4695 1.83645C85.5772 1.75993 85.7207 1.69296 85.9 1.63554C86.0794 1.57812 86.2678 1.53992 86.465 1.52082C86.6802 1.4825 86.8865 1.4634 87.0838 1.4634C87.9986 1.4634 88.7161 1.72161 89.2362 2.23814C89.7742 2.73545 90.0433 3.33805 90.0433 4.04594V20.6887C90.689 20.6313 91.3347 20.5835 91.9804 20.5452C92.6261 20.4878 93.2539 20.44 93.8637 20.4017C94.4736 20.3444 95.0297 20.3061 95.5319 20.287C96.052 20.2679 96.5004 20.2584 96.877 20.2584C97.4869 20.2584 98.016 20.3826 98.4645 20.6313C98.9129 20.8801 99.1371 21.3104 99.1371 21.9225C99.1371 22.133 99.1101 22.4391 99.0564 22.8408C99.0204 23.2425 98.9577 23.6538 98.868 24.0746C98.7963 24.4955 98.6887 24.859 98.5452 25.1651C98.4196 25.4712 98.2672 25.6242 98.0878 25.6242C97.9981 25.6242 97.9264 25.5954 97.8725 25.538C97.8367 25.4616 97.765 25.385 97.6573 25.3086C97.5676 25.2319 97.4241 25.1555 97.2268 25.0789C97.0475 25.0025 96.7695 24.9451 96.3928 24.9068L90.0433 24.5051ZM94.079 49.0102C94.079 47.6711 93.9893 46.2843 93.81 44.8495C93.6485 43.4338 93.3974 41.9992 93.0566 40.5454C92.7158 39.0723 92.2944 37.6184 91.7921 36.1838C91.2899 34.7299 90.7069 33.3238 90.0433 31.9656V57.1307C90.0433 57.5898 90.0612 58.0872 90.0971 58.6229C90.133 59.1585 90.1957 59.6463 90.2855 60.0863C90.3931 60.5263 90.5276 60.8896 90.689 61.1766C90.8684 61.4827 91.0926 61.6357 91.3616 61.6357C91.7562 61.6357 92.1239 61.3297 92.4647 60.7175C92.8056 60.1054 93.0925 59.235 93.3257 58.1063C93.5588 56.9969 93.7383 55.6673 93.8637 54.1178C94.0072 52.5874 94.079 50.8849 94.079 49.0102ZM109.872 43.8452C108.706 43.8452 107.738 43.7017 106.966 43.4147C106.195 43.147 105.585 42.8409 105.137 42.4965C104.688 42.1522 104.375 41.827 104.195 41.5209C104.016 41.1957 103.926 40.9852 103.926 40.8896C103.926 40.5454 103.998 40.1819 104.141 39.7993C104.285 39.3976 104.464 39.0341 104.679 38.7089C104.895 38.3645 105.128 38.0775 105.379 37.848C105.63 37.6184 105.854 37.5037 106.052 37.5037C106.303 37.5037 106.509 37.6758 106.67 38.0202C106.706 38.0584 106.796 38.1541 106.939 38.3071C107.083 38.4601 107.28 38.6228 107.531 38.795C107.8 38.948 108.123 39.0915 108.5 39.2253C108.894 39.3593 109.352 39.4262 109.872 39.4262C111.002 39.4262 111.925 39.0627 112.643 38.3359C113.36 37.5898 113.72 36.5855 113.72 35.3229C113.72 34.443 113.522 33.6587 113.127 32.97C112.751 32.2813 112.249 31.6404 111.621 31.0474C110.993 30.4544 110.276 29.8805 109.469 29.3258C108.661 28.7518 107.836 28.1589 106.993 27.5467C106.15 26.9346 105.325 26.2746 104.518 25.5668C103.711 24.859 102.993 24.046 102.366 23.1277C101.738 22.2095 101.227 21.1766 100.832 20.0287C100.455 18.8618 100.267 17.5323 100.267 16.0402C100.267 14.7586 100.473 13.4673 100.886 12.1665C101.298 10.8657 101.863 9.6318 102.581 8.4648C103.316 7.27882 104.177 6.17879 105.164 5.16495C106.15 4.13201 107.217 3.24243 108.365 2.49635C109.514 1.73116 110.706 1.13823 111.944 0.717317C113.2 0.277304 114.454 0.0574194 115.71 0.0574194C116.787 0.0574194 117.755 0.239105 118.615 0.6026C119.476 0.965972 120.203 1.4825 120.795 2.15207C121.387 2.80242 121.845 3.59638 122.167 4.5337C122.49 5.45193 122.652 6.48499 122.652 7.63265C122.652 8.72313 122.473 9.79439 122.113 10.8464C121.755 11.8986 121.28 12.8933 120.688 13.8308C120.096 14.7681 119.424 15.6385 118.669 16.442C117.935 17.2263 117.173 17.9149 116.383 18.508C115.611 19.0818 114.858 19.5314 114.122 19.8565C113.388 20.1817 112.742 20.3444 112.186 20.3444C111.702 20.3444 111.262 20.2296 110.867 20C110.49 19.7514 110.168 19.4548 109.899 19.1105C109.648 18.7471 109.45 18.374 109.307 17.9914C109.163 17.5897 109.092 17.2358 109.092 16.9297C109.092 16.6811 109.119 16.5185 109.173 16.442C109.244 16.3655 109.333 16.3367 109.441 16.3558C109.568 16.3558 109.719 16.3845 109.899 16.442C110.078 16.4802 110.285 16.4993 110.518 16.4993C111.271 16.4993 112.106 16.222 113.019 15.6672C113.934 15.1124 114.795 14.4046 115.602 13.5438C116.41 12.6829 117.082 11.736 117.62 10.7031C118.177 9.67 118.455 8.66571 118.455 7.69007C118.455 6.69532 118.222 5.91104 117.755 5.33709C117.307 4.76326 116.535 4.47628 115.441 4.47628C114.76 4.47628 114.016 4.61977 113.209 4.90675C112.419 5.1745 111.621 5.55709 110.814 6.05453C110.006 6.55184 109.227 7.15444 108.473 7.86233C107.72 8.57009 107.056 9.35438 106.482 10.2152C105.908 11.0569 105.442 11.9751 105.083 12.9699C104.742 13.9455 104.572 14.9689 104.572 16.0402C104.572 17.1688 104.76 18.1827 105.137 19.0818C105.531 19.9618 106.043 20.7652 106.67 21.4922C107.316 22.2191 108.042 22.8886 108.85 23.5008C109.657 24.1129 110.481 24.7251 111.325 25.3372C112.168 25.9303 112.993 26.552 113.8 27.2023C114.607 27.8336 115.324 28.5415 115.952 29.3258C116.599 30.0909 117.109 30.9517 117.486 31.9083C117.881 32.8456 118.078 33.9264 118.078 35.1507C118.078 36.3368 117.862 37.4654 117.432 38.5366C117.02 39.5888 116.446 40.507 115.71 41.2913C114.975 42.0757 114.105 42.6974 113.101 43.1565C112.096 43.6157 111.02 43.8452 109.872 43.8452Z" fill="#FA0075"/>
<path d="M0.96 65.256C0.96 64.984 0.992 64.728 1.056 64.488C1.136 64.232 1.232 64 1.344 63.792C1.472 63.44 1.608 63.04 1.752 62.592C1.896 62.144 2.072 61.632 2.28 61.056C2.264 61.008 2.256 60.952 2.256 60.888C2.256 60.824 2.256 60.776 2.256 60.744C2.256 60.424 2.296 60.16 2.376 59.952C2.456 59.728 2.624 59.536 2.88 59.376L4.968 54.48C5.064 54.288 5.168 54.072 5.28 53.832C5.392 53.592 5.512 53.376 5.64 53.184C5.768 52.976 5.904 52.8 6.048 52.656C6.192 52.512 6.344 52.44 6.504 52.44C6.952 52.44 7.36 52.696 7.728 53.208C8.096 53.704 8.432 54.336 8.736 55.104C9.056 55.872 9.344 56.72 9.6 57.648C9.856 58.576 10.088 59.464 10.296 60.312C10.52 61.144 10.72 61.88 10.896 62.52C11.088 63.16 11.272 63.584 11.448 63.792C11.56 63.936 11.656 64.056 11.736 64.152C11.816 64.232 11.88 64.32 11.928 64.416C11.976 64.496 12.008 64.6 12.024 64.728C12.056 64.84 12.072 64.992 12.072 65.184C12.072 65.44 12.032 65.64 11.952 65.784C11.872 65.912 11.776 66.008 11.664 66.072C11.568 66.152 11.456 66.2 11.328 66.216C11.216 66.232 11.12 66.24 11.04 66.24C10.88 66.24 10.728 66.152 10.584 65.976C10.44 65.784 10.304 65.56 10.176 65.304C10.064 65.048 9.96 64.776 9.864 64.488C9.784 64.2 9.72 63.952 9.672 63.744C9.544 63.296 9.432 62.928 9.336 62.64C9.256 62.352 9.168 62.128 9.072 61.968C8.992 61.808 8.888 61.696 8.76 61.632C8.648 61.568 8.488 61.536 8.28 61.536H4.248C4.136 61.536 4.04 61.544 3.96 61.56C3.896 61.576 3.832 61.624 3.768 61.704C3.72 61.768 3.672 61.864 3.624 61.992C3.576 62.12 3.512 62.296 3.432 62.52L2.688 64.656C2.656 64.976 2.6 65.232 2.52 65.424C2.44 65.616 2.344 65.768 2.232 65.88C2.136 65.976 2.04 66.04 1.944 66.072C1.848 66.12 1.784 66.144 1.752 66.144C1.496 66.144 1.296 66.088 1.152 65.976C1.024 65.848 0.96 65.608 0.96 65.256ZM4.584 59.304C5.048 59.32 5.464 59.336 5.832 59.352C6.2 59.352 6.592 59.352 7.008 59.352C7.2 59.352 7.4 59.352 7.608 59.352C7.816 59.352 8.04 59.344 8.28 59.328C8.168 59.008 8.024 58.64 7.848 58.224C7.688 57.792 7.504 57.36 7.296 56.928L6.408 55.032C6.328 55.08 6.208 55.272 6.048 55.608C5.888 55.944 5.712 56.336 5.52 56.784C5.344 57.232 5.168 57.688 4.992 58.152C4.816 58.616 4.68 59 4.584 59.304ZM13.9176 61.296C13.9176 60.544 14.0296 59.816 14.2536 59.112C14.4776 58.392 14.7976 57.76 15.2136 57.216C15.6456 56.656 16.1736 56.216 16.7976 55.896C17.4216 55.56 18.1336 55.392 18.9336 55.392C19.6056 55.392 20.1976 55.576 20.7096 55.944C21.2216 56.312 21.5096 56.8 21.5736 57.408C21.5736 57.232 21.5736 56.984 21.5736 56.664C21.5736 56.328 21.5736 55.952 21.5736 55.536C21.5896 55.12 21.5976 54.696 21.5976 54.264C21.5976 53.816 21.5976 53.384 21.5976 52.968C21.6136 52.552 21.6216 52.184 21.6216 51.864C21.6216 51.528 21.6216 51.272 21.6216 51.096C21.6216 50.328 21.9016 49.944 22.4616 49.944C22.6856 49.944 22.8376 50.056 22.9176 50.28C23.0136 50.504 23.0616 50.744 23.0616 51C23.0616 51.128 23.0616 51.352 23.0616 51.672C23.0616 51.976 23.0536 52.304 23.0376 52.656C23.0376 52.992 23.0376 53.312 23.0376 53.616C23.0376 53.92 23.0376 54.144 23.0376 54.288C23.0056 55.424 22.9816 56.392 22.9656 57.192C22.9496 57.976 22.9336 58.624 22.9176 59.136C22.9176 59.648 22.9096 60.048 22.8936 60.336C22.8936 60.624 22.8936 60.84 22.8936 60.984C22.8936 61.112 22.8936 61.192 22.8936 61.224C22.8936 61.256 22.8936 61.28 22.8936 61.296L22.8696 63.192C22.8696 63.608 22.8536 64 22.8216 64.368C22.8056 64.72 22.7656 65.032 22.7016 65.304C22.6376 65.56 22.5416 65.768 22.4136 65.928C22.2856 66.088 22.1176 66.168 21.9096 66.168C21.7336 66.168 21.5896 66.04 21.4776 65.784C21.3656 65.528 21.2696 65.28 21.1896 65.04C20.9976 65.232 20.7576 65.4 20.4696 65.544C20.1816 65.672 19.8856 65.784 19.5816 65.88C19.2776 65.96 18.9736 66.024 18.6696 66.072C18.3816 66.12 18.1336 66.144 17.9256 66.144C17.2536 66.144 16.6616 66.032 16.1496 65.808C15.6536 65.568 15.2376 65.232 14.9016 64.8C14.5656 64.368 14.3176 63.856 14.1576 63.264C13.9976 62.672 13.9176 62.016 13.9176 61.296ZM15.4536 61.224C15.4536 62.152 15.7176 62.88 16.2456 63.408C16.7736 63.92 17.4216 64.176 18.1896 64.176C18.6536 64.176 19.0696 64.128 19.4376 64.032C19.8056 63.92 20.1176 63.792 20.3736 63.648C20.6296 63.504 20.8296 63.352 20.9736 63.192C21.1336 63.032 21.2296 62.888 21.2616 62.76C21.3416 62.488 21.3816 62.2 21.3816 61.896C21.3976 61.592 21.4056 61.296 21.4056 61.008V60.36C21.4056 59.976 21.3336 59.616 21.1896 59.28C21.0616 58.928 20.8856 58.616 20.6616 58.344C20.4376 58.072 20.1736 57.856 19.8696 57.696C19.5816 57.536 19.2776 57.456 18.9576 57.456C18.4136 57.456 17.9256 57.552 17.4936 57.744C17.0616 57.92 16.6936 58.176 16.3896 58.512C16.0856 58.848 15.8536 59.248 15.6936 59.712C15.5336 60.176 15.4536 60.68 15.4536 61.224ZM25.5276 64.896C25.5276 63.92 25.5356 62.832 25.5516 61.632C25.5676 60.432 25.5836 59.216 25.5996 57.984C25.6316 56.736 25.6556 55.512 25.6716 54.312C25.6876 53.112 25.6956 52.032 25.6956 51.072C25.6956 50.944 25.7116 50.8 25.7436 50.64C25.7916 50.48 25.8556 50.328 25.9356 50.184C26.0156 50.04 26.1116 49.92 26.2236 49.824C26.3356 49.712 26.4636 49.656 26.6076 49.656C26.7836 49.656 26.9356 49.752 27.0636 49.944C27.2076 50.12 27.2796 50.336 27.2796 50.592V50.64C27.2796 51.536 27.2556 52.472 27.2076 53.448C27.1596 54.424 27.1356 55.368 27.1356 56.28L27.0876 57.6C27.1356 57.296 27.2556 57.016 27.4476 56.76C27.6396 56.504 27.8636 56.288 28.1196 56.112C28.3756 55.92 28.6476 55.776 28.9356 55.68C29.2236 55.584 29.4956 55.536 29.7516 55.536C30.6956 55.536 31.4636 55.704 32.0556 56.04C32.6476 56.376 33.1036 56.8 33.4236 57.312C33.7596 57.824 33.9836 58.392 34.0956 59.016C34.2236 59.624 34.2876 60.2 34.2876 60.744L34.1676 64.344C34.1676 64.488 34.1596 64.672 34.1436 64.896C34.1276 65.12 34.0956 65.336 34.0476 65.544C33.9996 65.736 33.9196 65.904 33.8076 66.048C33.6956 66.192 33.5356 66.264 33.3276 66.264C33.0556 66.264 32.8396 66.152 32.6796 65.928C32.5356 65.688 32.4636 65.4 32.4636 65.064C32.4636 64.36 32.5036 63.704 32.5836 63.096C32.6796 62.472 32.7276 61.824 32.7276 61.152V60.912C32.7276 60.576 32.7036 60.216 32.6556 59.832C32.6076 59.448 32.4796 59.096 32.2716 58.776C32.0636 58.44 31.7596 58.168 31.3596 57.96C30.9596 57.752 30.4156 57.648 29.7276 57.648C29.3916 57.648 29.0636 57.712 28.7436 57.84C28.4236 57.952 28.1436 58.104 27.9036 58.296C27.6636 58.472 27.4636 58.672 27.3036 58.896C27.1596 59.104 27.0876 59.304 27.0876 59.496V64.68C27.0876 64.84 27.0796 65 27.0636 65.16C27.0476 65.32 27.0156 65.472 26.9676 65.616C26.9356 65.744 26.8716 65.848 26.7756 65.928C26.6796 66.008 26.5436 66.048 26.3676 66.048C26.3036 66.048 26.2236 66.04 26.1276 66.024C26.0316 66.008 25.9356 65.96 25.8396 65.88C25.7596 65.8 25.6876 65.688 25.6236 65.544C25.5596 65.384 25.5276 65.168 25.5276 64.896ZM38.1758 53.064C38.0638 53.064 37.9358 53.048 37.7918 53.016C37.6478 52.984 37.5118 52.928 37.3838 52.848C37.2558 52.752 37.1438 52.632 37.0478 52.488C36.9678 52.328 36.9277 52.12 36.9277 51.864C36.9277 51.688 36.9597 51.512 37.0238 51.336C37.1038 51.16 37.1998 51.008 37.3118 50.88C37.4238 50.736 37.5438 50.624 37.6718 50.544C37.8158 50.448 37.9518 50.4 38.0798 50.4C38.3358 50.4 38.5838 50.488 38.8238 50.664C39.0798 50.84 39.2078 51.184 39.2078 51.696C39.2078 52.608 38.8638 53.064 38.1758 53.064ZM36.8318 65.136C36.8158 65.056 36.7918 64.864 36.7598 64.56C36.7438 64.24 36.7358 63.672 36.7358 62.856C36.7358 62.536 36.7358 62.128 36.7358 61.632C36.7358 61.12 36.7438 60.592 36.7598 60.048C36.7918 59.488 36.8318 58.928 36.8798 58.368C36.9438 57.808 37.0158 57.304 37.0958 56.856C37.1918 56.408 37.3118 56.048 37.4558 55.776C37.5998 55.488 37.7758 55.344 37.9838 55.344C38.2398 55.344 38.3918 55.456 38.4398 55.68C38.5038 55.904 38.5358 56.168 38.5358 56.472C38.5038 57.144 38.4558 57.904 38.3918 58.752C38.3278 59.584 38.2958 60.4 38.2958 61.2C38.2958 61.792 38.3438 62.448 38.4398 63.168C38.5358 63.872 38.5838 64.504 38.5838 65.064C38.5838 65.448 38.5038 65.744 38.3438 65.952C38.1838 66.144 38.0158 66.24 37.8398 66.24C37.5678 66.24 37.3518 66.16 37.1918 66C37.0318 65.84 36.9118 65.552 36.8318 65.136ZM45.1986 66.12C44.6226 66.12 44.1586 65.984 43.8066 65.712C43.4546 65.424 43.1826 65.048 42.9906 64.584C42.7986 64.12 42.6626 63.592 42.5826 63C42.5186 62.408 42.4786 61.8 42.4626 61.176C42.4466 60.536 42.4306 59.912 42.4146 59.304C42.4146 58.696 42.3906 58.144 42.3426 57.648C42.1666 57.648 41.9826 57.656 41.7906 57.672C41.5986 57.688 41.3906 57.696 41.1666 57.696C41.1026 57.696 41.0146 57.672 40.9026 57.624C40.8066 57.576 40.7026 57.512 40.5906 57.432C40.4946 57.336 40.4066 57.224 40.3266 57.096C40.2626 56.968 40.2306 56.816 40.2306 56.64C40.2306 56.32 40.3266 56.048 40.5186 55.824C40.7106 55.6 40.9266 55.488 41.1666 55.488C41.3746 55.488 41.5826 55.496 41.7906 55.512C41.9986 55.512 42.2226 55.52 42.4626 55.536C42.4626 55.328 42.4706 55.008 42.4866 54.576C42.5186 54.144 42.5666 53.72 42.6306 53.304C42.7106 52.888 42.8226 52.52 42.9666 52.2C43.1106 51.88 43.3026 51.72 43.5426 51.72C43.6706 51.72 43.8066 51.816 43.9506 52.008C44.1106 52.184 44.1906 52.424 44.1906 52.728C44.1906 53.448 44.1666 53.984 44.1186 54.336C44.0866 54.688 44.0546 54.952 44.0226 55.128L43.9506 55.56C44.5266 55.56 45.1026 55.552 45.6786 55.536C46.2706 55.52 46.8626 55.512 47.4546 55.512C47.5666 55.512 47.6626 55.552 47.7426 55.632C47.8226 55.712 47.8866 55.816 47.9346 55.944C47.9826 56.056 48.0146 56.184 48.0306 56.328C48.0626 56.456 48.0786 56.576 48.0786 56.688C48.0786 57.024 47.9906 57.28 47.8146 57.456C47.6546 57.616 47.4946 57.696 47.3346 57.696L43.9266 57.648C43.9266 57.792 43.9186 57.984 43.9026 58.224C43.9026 58.448 43.9026 58.696 43.9026 58.968C43.9026 59.24 43.8946 59.528 43.8786 59.832C43.8786 60.12 43.8786 60.4 43.8786 60.672C43.8786 61.104 43.8946 61.52 43.9266 61.92C43.9586 62.304 44.0146 62.648 44.0946 62.952C44.1906 63.256 44.3186 63.504 44.4786 63.696C44.6386 63.872 44.8546 63.96 45.1266 63.96C45.3186 63.96 45.5106 63.92 45.7026 63.84C45.9106 63.76 46.0946 63.672 46.2546 63.576C46.4306 63.464 46.5746 63.368 46.6866 63.288C46.7986 63.208 46.8706 63.168 46.9026 63.168C47.0946 63.168 47.2226 63.232 47.2866 63.36C47.3506 63.472 47.3826 63.64 47.3826 63.864C47.3826 64.104 47.3026 64.36 47.1426 64.632C46.9986 64.888 46.8146 65.128 46.5906 65.352C46.3666 65.576 46.1266 65.76 45.8706 65.904C45.6146 66.048 45.3906 66.12 45.1986 66.12ZM51.4179 53.064C51.3059 53.064 51.1779 53.048 51.0339 53.016C50.8899 52.984 50.7539 52.928 50.6259 52.848C50.4979 52.752 50.3859 52.632 50.2899 52.488C50.2099 52.328 50.1699 52.12 50.1699 51.864C50.1699 51.688 50.2019 51.512 50.2659 51.336C50.3459 51.16 50.4419 51.008 50.5539 50.88C50.6659 50.736 50.7859 50.624 50.9139 50.544C51.0579 50.448 51.1939 50.4 51.3219 50.4C51.5779 50.4 51.8259 50.488 52.0659 50.664C52.3219 50.84 52.4499 51.184 52.4499 51.696C52.4499 52.608 52.1059 53.064 51.4179 53.064ZM50.0739 65.136C50.0579 65.056 50.0339 64.864 50.0019 64.56C49.9859 64.24 49.9779 63.672 49.9779 62.856C49.9779 62.536 49.9779 62.128 49.9779 61.632C49.9779 61.12 49.9859 60.592 50.0019 60.048C50.0339 59.488 50.0739 58.928 50.1219 58.368C50.1859 57.808 50.2579 57.304 50.3379 56.856C50.4339 56.408 50.5539 56.048 50.6979 55.776C50.8419 55.488 51.0179 55.344 51.2259 55.344C51.4819 55.344 51.6339 55.456 51.6819 55.68C51.7459 55.904 51.7779 56.168 51.7779 56.472C51.7459 57.144 51.6979 57.904 51.6339 58.752C51.5699 59.584 51.5379 60.4 51.5379 61.2C51.5379 61.792 51.5859 62.448 51.6819 63.168C51.7779 63.872 51.8259 64.504 51.8259 65.064C51.8259 65.448 51.7459 65.744 51.5859 65.952C51.4259 66.144 51.2579 66.24 51.0819 66.24C50.8099 66.24 50.5939 66.16 50.4339 66C50.2739 65.84 50.1539 65.552 50.0739 65.136ZM53.4728 61.872C53.4728 61.088 53.6088 60.312 53.8808 59.544C54.1528 58.76 54.5288 58.064 55.0088 57.456C55.4888 56.832 56.0408 56.336 56.6648 55.968C57.3048 55.584 57.9848 55.392 58.7048 55.392C59.2488 55.392 59.7608 55.52 60.2408 55.776C60.7368 56.032 61.1608 56.368 61.5128 56.784C61.8648 57.184 62.1448 57.648 62.3528 58.176C62.5608 58.688 62.6648 59.2 62.6648 59.712C62.6648 59.984 62.6488 60.248 62.6168 60.504C62.5848 60.744 62.5448 60.992 62.4968 61.248C62.4648 61.488 62.4328 61.744 62.4008 62.016C62.3688 62.288 62.3528 62.592 62.3528 62.928C62.3528 63.376 62.4168 63.688 62.5448 63.864C62.6728 64.04 62.8568 64.128 63.0968 64.128C63.2408 64.128 63.3768 64.048 63.5048 63.888C63.6488 63.728 63.7768 63.632 63.8888 63.6C64.3048 63.6 64.5128 63.904 64.5128 64.512C64.5128 64.704 64.4728 64.896 64.3928 65.088C64.3128 65.28 64.2008 65.456 64.0568 65.616C63.9128 65.76 63.7448 65.888 63.5528 66C63.3608 66.096 63.1528 66.144 62.9288 66.144C62.7048 66.144 62.4808 66.08 62.2568 65.952C62.0488 65.824 61.8568 65.664 61.6808 65.472C61.5048 65.264 61.3608 65.032 61.2488 64.776C61.1368 64.504 61.0808 64.224 61.0808 63.936C60.6008 64.544 60.0568 65.08 59.4488 65.544C58.8568 66.008 58.2008 66.24 57.4808 66.24C57.0168 66.24 56.5448 66.128 56.0648 65.904C55.6008 65.68 55.1768 65.376 54.7928 64.992C54.4088 64.592 54.0888 64.128 53.8328 63.6C53.5928 63.056 53.4728 62.48 53.4728 61.872ZM54.9608 61.8C54.9608 62.152 55.0408 62.472 55.2008 62.76C55.3768 63.048 55.6008 63.296 55.8728 63.504C56.1608 63.696 56.4728 63.848 56.8088 63.96C57.1608 64.072 57.5048 64.128 57.8408 64.128C58.5448 64.128 59.1048 63.976 59.5208 63.672C59.9368 63.352 60.2648 62.96 60.5048 62.496C60.7448 62.016 60.9128 61.504 61.0088 60.96C61.1048 60.4 61.1928 59.872 61.2728 59.376C61.2728 59.2 61.1848 59.008 61.0088 58.8C60.8488 58.576 60.6488 58.376 60.4088 58.2C60.1688 58.008 59.9048 57.848 59.6168 57.72C59.3448 57.592 59.0968 57.528 58.8728 57.528C58.2808 57.528 57.7448 57.656 57.2648 57.912C56.7848 58.168 56.3688 58.504 56.0168 58.92C55.6808 59.32 55.4168 59.776 55.2248 60.288C55.0488 60.8 54.9608 61.304 54.9608 61.8ZM65.4908 60.48C65.4588 60.096 65.4348 59.784 65.4188 59.544C65.4188 59.288 65.4108 59.08 65.3948 58.92C65.3948 58.76 65.3948 58.64 65.3948 58.56C65.3948 58.48 65.3948 58.4 65.3948 58.32V57.984C65.3948 57.728 65.4028 57.456 65.4188 57.168C65.4508 56.864 65.4908 56.584 65.5388 56.328C65.6028 56.072 65.6828 55.856 65.7788 55.68C65.8748 55.504 66.0028 55.416 66.1628 55.416C66.7228 55.416 67.0028 55.904 67.0028 56.88C67.0028 57.056 66.9948 57.24 66.9788 57.432C66.9628 57.624 66.9388 57.832 66.9068 58.056C67.0348 57.592 67.2428 57.192 67.5308 56.856C67.8348 56.52 68.1628 56.24 68.5148 56.016C68.8668 55.792 69.2108 55.624 69.5468 55.512C69.8988 55.4 70.1948 55.344 70.4348 55.344C71.1868 55.344 71.8108 55.52 72.3068 55.872C72.8028 56.224 73.1948 56.68 73.4828 57.24C73.7708 57.8 73.9708 58.424 74.0828 59.112C74.1948 59.8 74.2508 60.48 74.2508 61.152C74.2508 61.712 74.2348 62.296 74.2028 62.904C74.1868 63.512 74.1388 64.072 74.0588 64.584C73.9948 65.08 73.8908 65.496 73.7468 65.832C73.6028 66.152 73.4108 66.312 73.1708 66.312C72.9308 66.312 72.7228 66.248 72.5468 66.12C72.3868 66.008 72.3068 65.664 72.3068 65.088C72.3068 64.8 72.3308 64.528 72.3788 64.272C72.4268 64 72.4748 63.728 72.5228 63.456C72.5868 63.184 72.6428 62.912 72.6908 62.64C72.7388 62.352 72.7628 62.056 72.7628 61.752C72.7628 61.32 72.7308 60.856 72.6668 60.36C72.6188 59.864 72.4988 59.4 72.3068 58.968C72.1148 58.536 71.8428 58.176 71.4908 57.888C71.1388 57.6 70.6668 57.456 70.0748 57.456C69.8508 57.456 69.5948 57.512 69.3068 57.624C69.0188 57.72 68.7308 57.864 68.4428 58.056C68.1548 58.232 67.8748 58.448 67.6028 58.704C67.3468 58.96 67.1228 59.24 66.9308 59.544C66.9308 59.912 66.9228 60.328 66.9068 60.792C66.8908 61.24 66.8828 61.632 66.8828 61.968C66.8828 62.48 66.9388 62.96 67.0508 63.408C67.1788 63.856 67.2428 64.336 67.2428 64.848C67.2428 65.2 67.2028 65.504 67.1228 65.76C67.0428 66.016 66.8268 66.144 66.4748 66.144C66.3468 66.144 66.2188 66.128 66.0908 66.096C65.9788 66.08 65.8668 66.024 65.7548 65.928C65.6588 65.832 65.5788 65.696 65.5148 65.52C65.4668 65.344 65.4428 65.104 65.4428 64.8L65.4908 60.48ZM78.1367 53.064C78.0247 53.064 77.8967 53.048 77.7527 53.016C77.6087 52.984 77.4727 52.928 77.3447 52.848C77.2167 52.752 77.1047 52.632 77.0087 52.488C76.9287 52.328 76.8887 52.12 76.8887 51.864C76.8887 51.688 76.9207 51.512 76.9847 51.336C77.0647 51.16 77.1607 51.008 77.2727 50.88C77.3847 50.736 77.5047 50.624 77.6327 50.544C77.7767 50.448 77.9127 50.4 78.0407 50.4C78.2967 50.4 78.5447 50.488 78.7847 50.664C79.0407 50.84 79.1687 51.184 79.1687 51.696C79.1687 52.608 78.8247 53.064 78.1367 53.064ZM76.7927 65.136C76.7767 65.056 76.7527 64.864 76.7207 64.56C76.7047 64.24 76.6967 63.672 76.6967 62.856C76.6967 62.536 76.6967 62.128 76.6967 61.632C76.6967 61.12 76.7047 60.592 76.7207 60.048C76.7527 59.488 76.7927 58.928 76.8407 58.368C76.9047 57.808 76.9767 57.304 77.0567 56.856C77.1527 56.408 77.2727 56.048 77.4167 55.776C77.5607 55.488 77.7367 55.344 77.9447 55.344C78.2007 55.344 78.3527 55.456 78.4007 55.68C78.4647 55.904 78.4967 56.168 78.4967 56.472C78.4647 57.144 78.4167 57.904 78.3527 58.752C78.2887 59.584 78.2567 60.4 78.2567 61.2C78.2567 61.792 78.3047 62.448 78.4007 63.168C78.4967 63.872 78.5447 64.504 78.5447 65.064C78.5447 65.448 78.4647 65.744 78.3047 65.952C78.1447 66.144 77.9767 66.24 77.8007 66.24C77.5287 66.24 77.3127 66.16 77.1527 66C76.9927 65.84 76.8727 65.552 76.7927 65.136Z" fill="white"/>
<path d="M104.728 63.768C104.728 63.672 104.744 63.544 104.776 63.384C104.824 63.208 104.88 63.04 104.944 62.88C105.008 62.72 105.088 62.584 105.184 62.472C105.28 62.344 105.376 62.28 105.472 62.28C105.52 62.28 105.608 62.408 105.736 62.664C105.896 63 106.048 63.256 106.192 63.432C106.336 63.608 106.48 63.744 106.624 63.84C106.784 63.92 106.96 63.968 107.152 63.984C107.36 64 107.6 64.008 107.872 64.008C108.208 64.008 108.552 63.96 108.904 63.864C109.256 63.752 109.576 63.616 109.864 63.456C110.152 63.28 110.392 63.096 110.584 62.904C110.776 62.696 110.872 62.504 110.872 62.328C110.872 62.024 110.704 61.792 110.368 61.632C110.048 61.472 109.64 61.328 109.144 61.2C108.664 61.072 108.136 60.936 107.56 60.792C106.984 60.648 106.448 60.456 105.952 60.216C105.472 59.96 105.064 59.624 104.728 59.208C104.408 58.792 104.248 58.24 104.248 57.552C104.248 56.768 104.392 56.064 104.68 55.44C104.984 54.816 105.36 54.296 105.808 53.88C106.272 53.464 106.784 53.144 107.344 52.92C107.92 52.696 108.488 52.584 109.048 52.584C109.432 52.584 109.776 52.656 110.08 52.8C110.384 52.928 110.648 53.112 110.872 53.352C111.096 53.576 111.264 53.84 111.376 54.144C111.504 54.448 111.568 54.76 111.568 55.08C111.568 55.288 111.56 55.512 111.544 55.752C111.528 55.976 111.496 56.184 111.448 56.376C111.4 56.568 111.32 56.728 111.208 56.856C111.112 56.984 110.976 57.048 110.8 57.048C110.576 57.048 110.44 56.944 110.392 56.736C110.36 56.528 110.344 56.288 110.344 56.016C110.344 55.504 110.2 55.16 109.912 54.984C109.624 54.792 109.24 54.696 108.76 54.696C108.488 54.696 108.176 54.768 107.824 54.912C107.488 55.056 107.16 55.256 106.84 55.512C106.536 55.752 106.272 56.032 106.048 56.352C105.84 56.672 105.736 57 105.736 57.336C105.736 57.688 105.896 57.96 106.216 58.152C106.552 58.328 106.968 58.48 107.464 58.608C107.96 58.72 108.488 58.84 109.048 58.968C109.624 59.08 110.16 59.264 110.656 59.52C111.152 59.76 111.56 60.088 111.88 60.504C112.216 60.92 112.384 61.488 112.384 62.208C112.384 62.928 112.192 63.544 111.808 64.056C111.44 64.552 111 64.96 110.488 65.28C109.976 65.584 109.448 65.808 108.904 65.952C108.376 66.08 107.952 66.144 107.632 66.144C107.392 66.144 107.104 66.12 106.768 66.072C106.432 66.024 106.112 65.92 105.808 65.76C105.52 65.6 105.264 65.36 105.04 65.04C104.832 64.72 104.728 64.296 104.728 63.768ZM118.226 66.312C117.41 66.312 116.754 66.112 116.258 65.712C115.778 65.296 115.41 64.792 115.154 64.2C114.898 63.608 114.73 62.984 114.65 62.328C114.586 61.656 114.554 61.064 114.554 60.552C114.554 60.056 114.57 59.512 114.602 58.92C114.65 58.328 114.73 57.776 114.842 57.264C114.954 56.736 115.098 56.296 115.274 55.944C115.466 55.592 115.698 55.416 115.97 55.416C116.194 55.416 116.346 55.488 116.426 55.632C116.522 55.776 116.57 55.968 116.57 56.208C116.57 56.448 116.538 56.728 116.474 57.048C116.426 57.352 116.37 57.68 116.306 58.032C116.242 58.384 116.178 58.752 116.114 59.136C116.066 59.52 116.042 59.904 116.042 60.288C116.042 60.592 116.066 60.968 116.114 61.416C116.162 61.864 116.258 62.296 116.402 62.712C116.546 63.112 116.754 63.464 117.026 63.768C117.298 64.056 117.666 64.2 118.13 64.2C118.498 64.2 118.826 64.128 119.114 63.984C119.418 63.824 119.69 63.632 119.93 63.408C120.17 63.168 120.378 62.904 120.554 62.616C120.746 62.328 120.93 62.048 121.106 61.776C121.138 61.264 121.162 60.832 121.178 60.48C121.21 60.112 121.234 59.76 121.25 59.424L121.298 56.352C121.298 55.984 121.394 55.736 121.586 55.608C121.778 55.48 121.946 55.416 122.09 55.416C122.234 55.416 122.378 55.488 122.522 55.632C122.666 55.776 122.738 55.992 122.738 56.28L122.594 65.064C122.578 65.48 122.514 65.76 122.402 65.904C122.29 66.048 122.114 66.12 121.874 66.12C121.73 66.12 121.602 66.096 121.49 66.048C121.378 66.016 121.29 65.944 121.226 65.832C121.162 65.704 121.114 65.528 121.082 65.304C121.05 65.064 121.034 64.752 121.034 64.368C121.034 64.24 121.034 64.096 121.034 63.936C121.034 63.776 121.042 63.608 121.058 63.432C120.962 63.848 120.81 64.232 120.602 64.584C120.41 64.936 120.178 65.24 119.906 65.496C119.65 65.752 119.378 65.952 119.09 66.096C118.802 66.24 118.514 66.312 118.226 66.312ZM125.922 64.872C125.922 64.744 126.002 64.528 126.162 64.224C126.322 63.904 126.522 63.536 126.762 63.12C127.002 62.688 127.266 62.224 127.554 61.728C127.858 61.232 128.154 60.744 128.442 60.264C128.73 59.768 128.986 59.296 129.21 58.848C129.45 58.4 129.634 58.016 129.762 57.696C129.73 57.68 129.61 57.672 129.402 57.672C128.826 57.672 128.258 57.712 127.698 57.792C127.154 57.856 126.594 57.888 126.018 57.888C125.874 57.888 125.738 57.888 125.61 57.888C125.482 57.888 125.37 57.856 125.274 57.792C125.178 57.728 125.098 57.632 125.034 57.504C124.97 57.376 124.938 57.176 124.938 56.904C124.938 56.792 124.946 56.664 124.962 56.52C124.994 56.376 125.034 56.24 125.082 56.112C125.13 55.984 125.186 55.872 125.25 55.776C125.33 55.68 125.418 55.632 125.514 55.632H128.874C129.194 55.632 129.514 55.608 129.834 55.56C130.17 55.496 130.498 55.464 130.818 55.464C130.962 55.464 131.082 55.52 131.178 55.632C131.274 55.728 131.346 55.856 131.394 56.016C131.442 56.16 131.474 56.32 131.49 56.496C131.522 56.656 131.538 56.8 131.538 56.928C131.442 57.424 131.298 57.896 131.106 58.344C130.93 58.792 130.698 59.28 130.41 59.808C130.122 60.336 129.778 60.936 129.378 61.608C128.994 62.264 128.538 63.056 128.01 63.984C128.218 64.048 128.498 64.08 128.85 64.08C129.346 64.08 129.874 64.024 130.434 63.912C131.01 63.784 131.482 63.608 131.85 63.384C131.914 63.352 131.97 63.336 132.018 63.336C132.146 63.336 132.25 63.4 132.33 63.528C132.426 63.64 132.506 63.784 132.57 63.96C132.634 64.12 132.674 64.288 132.69 64.464C132.722 64.64 132.738 64.792 132.738 64.92C132.738 65.192 132.642 65.464 132.45 65.736C132.258 66.008 132.002 66.144 131.682 66.144C131.506 66.144 131.338 66.12 131.178 66.072C131.018 66.04 130.85 66.024 130.674 66.024C130.21 66.024 129.738 66.032 129.258 66.048C128.794 66.08 128.298 66.096 127.77 66.096C127.562 66.096 127.346 66.088 127.122 66.072C126.914 66.056 126.714 66.016 126.522 65.952C126.346 65.872 126.202 65.752 126.09 65.592C125.978 65.416 125.922 65.176 125.922 64.872ZM133.551 61.872C133.551 61.088 133.687 60.312 133.959 59.544C134.231 58.76 134.607 58.064 135.087 57.456C135.567 56.832 136.119 56.336 136.743 55.968C137.383 55.584 138.063 55.392 138.783 55.392C139.327 55.392 139.839 55.52 140.319 55.776C140.815 56.032 141.239 56.368 141.591 56.784C141.943 57.184 142.223 57.648 142.431 58.176C142.639 58.688 142.743 59.2 142.743 59.712C142.743 59.984 142.727 60.248 142.695 60.504C142.663 60.744 142.623 60.992 142.575 61.248C142.543 61.488 142.511 61.744 142.479 62.016C142.447 62.288 142.431 62.592 142.431 62.928C142.431 63.376 142.495 63.688 142.623 63.864C142.751 64.04 142.935 64.128 143.175 64.128C143.319 64.128 143.455 64.048 143.583 63.888C143.727 63.728 143.855 63.632 143.967 63.6C144.383 63.6 144.591 63.904 144.591 64.512C144.591 64.704 144.551 64.896 144.471 65.088C144.391 65.28 144.279 65.456 144.135 65.616C143.991 65.76 143.823 65.888 143.631 66C143.439 66.096 143.231 66.144 143.007 66.144C142.783 66.144 142.559 66.08 142.335 65.952C142.127 65.824 141.935 65.664 141.759 65.472C141.583 65.264 141.439 65.032 141.327 64.776C141.215 64.504 141.159 64.224 141.159 63.936C140.679 64.544 140.135 65.08 139.527 65.544C138.935 66.008 138.279 66.24 137.559 66.24C137.095 66.24 136.623 66.128 136.143 65.904C135.679 65.68 135.255 65.376 134.871 64.992C134.487 64.592 134.167 64.128 133.911 63.6C133.671 63.056 133.551 62.48 133.551 61.872ZM135.039 61.8C135.039 62.152 135.119 62.472 135.279 62.76C135.455 63.048 135.679 63.296 135.951 63.504C136.239 63.696 136.551 63.848 136.887 63.96C137.239 64.072 137.583 64.128 137.919 64.128C138.623 64.128 139.183 63.976 139.599 63.672C140.015 63.352 140.343 62.96 140.583 62.496C140.823 62.016 140.991 61.504 141.087 60.96C141.183 60.4 141.271 59.872 141.351 59.376C141.351 59.2 141.263 59.008 141.087 58.8C140.927 58.576 140.727 58.376 140.487 58.2C140.247 58.008 139.983 57.848 139.695 57.72C139.423 57.592 139.175 57.528 138.951 57.528C138.359 57.528 137.823 57.656 137.343 57.912C136.863 58.168 136.447 58.504 136.095 58.92C135.759 59.32 135.495 59.776 135.303 60.288C135.127 60.8 135.039 61.304 135.039 61.8ZM145.569 60.48C145.537 60.096 145.513 59.784 145.497 59.544C145.497 59.288 145.489 59.08 145.473 58.92C145.473 58.76 145.473 58.64 145.473 58.56C145.473 58.48 145.473 58.4 145.473 58.32V57.984C145.473 57.728 145.481 57.456 145.497 57.168C145.529 56.864 145.569 56.584 145.617 56.328C145.681 56.072 145.761 55.856 145.857 55.68C145.953 55.504 146.081 55.416 146.241 55.416C146.801 55.416 147.081 55.904 147.081 56.88C147.081 57.056 147.073 57.24 147.057 57.432C147.041 57.624 147.017 57.832 146.985 58.056C147.113 57.592 147.321 57.192 147.609 56.856C147.913 56.52 148.241 56.24 148.593 56.016C148.945 55.792 149.289 55.624 149.625 55.512C149.977 55.4 150.273 55.344 150.513 55.344C151.265 55.344 151.889 55.52 152.385 55.872C152.881 56.224 153.273 56.68 153.561 57.24C153.849 57.8 154.049 58.424 154.161 59.112C154.273 59.8 154.329 60.48 154.329 61.152C154.329 61.712 154.313 62.296 154.281 62.904C154.265 63.512 154.217 64.072 154.137 64.584C154.073 65.08 153.969 65.496 153.825 65.832C153.681 66.152 153.489 66.312 153.249 66.312C153.009 66.312 152.801 66.248 152.625 66.12C152.465 66.008 152.385 65.664 152.385 65.088C152.385 64.8 152.409 64.528 152.457 64.272C152.505 64 152.553 63.728 152.601 63.456C152.665 63.184 152.721 62.912 152.769 62.64C152.817 62.352 152.841 62.056 152.841 61.752C152.841 61.32 152.809 60.856 152.745 60.36C152.697 59.864 152.577 59.4 152.385 58.968C152.193 58.536 151.921 58.176 151.569 57.888C151.217 57.6 150.745 57.456 150.153 57.456C149.929 57.456 149.673 57.512 149.385 57.624C149.097 57.72 148.809 57.864 148.521 58.056C148.233 58.232 147.953 58.448 147.681 58.704C147.425 58.96 147.201 59.24 147.009 59.544C147.009 59.912 147.001 60.328 146.985 60.792C146.969 61.24 146.961 61.632 146.961 61.968C146.961 62.48 147.017 62.96 147.129 63.408C147.257 63.856 147.321 64.336 147.321 64.848C147.321 65.2 147.281 65.504 147.201 65.76C147.121 66.016 146.905 66.144 146.553 66.144C146.425 66.144 146.297 66.128 146.169 66.096C146.057 66.08 145.945 66.024 145.833 65.928C145.737 65.832 145.657 65.696 145.593 65.52C145.545 65.344 145.521 65.104 145.521 64.8L145.569 60.48ZM160.855 66.12C160.279 66.12 159.815 65.984 159.463 65.712C159.111 65.424 158.839 65.048 158.647 64.584C158.455 64.12 158.319 63.592 158.239 63C158.175 62.408 158.135 61.8 158.119 61.176C158.103 60.536 158.087 59.912 158.071 59.304C158.071 58.696 158.047 58.144 157.999 57.648C157.823 57.648 157.639 57.656 157.447 57.672C157.255 57.688 157.047 57.696 156.823 57.696C156.759 57.696 156.671 57.672 156.559 57.624C156.463 57.576 156.359 57.512 156.247 57.432C156.151 57.336 156.063 57.224 155.983 57.096C155.919 56.968 155.887 56.816 155.887 56.64C155.887 56.32 155.983 56.048 156.175 55.824C156.367 55.6 156.583 55.488 156.823 55.488C157.031 55.488 157.239 55.496 157.447 55.512C157.655 55.512 157.879 55.52 158.119 55.536C158.119 55.328 158.127 55.008 158.143 54.576C158.175 54.144 158.223 53.72 158.287 53.304C158.367 52.888 158.479 52.52 158.623 52.2C158.767 51.88 158.959 51.72 159.199 51.72C159.327 51.72 159.463 51.816 159.607 52.008C159.767 52.184 159.847 52.424 159.847 52.728C159.847 53.448 159.823 53.984 159.775 54.336C159.743 54.688 159.711 54.952 159.679 55.128L159.607 55.56C160.183 55.56 160.759 55.552 161.335 55.536C161.927 55.52 162.519 55.512 163.111 55.512C163.223 55.512 163.319 55.552 163.399 55.632C163.479 55.712 163.543 55.816 163.591 55.944C163.639 56.056 163.671 56.184 163.687 56.328C163.719 56.456 163.735 56.576 163.735 56.688C163.735 57.024 163.647 57.28 163.471 57.456C163.311 57.616 163.151 57.696 162.991 57.696L159.583 57.648C159.583 57.792 159.575 57.984 159.559 58.224C159.559 58.448 159.559 58.696 159.559 58.968C159.559 59.24 159.551 59.528 159.535 59.832C159.535 60.12 159.535 60.4 159.535 60.672C159.535 61.104 159.551 61.52 159.583 61.92C159.615 62.304 159.671 62.648 159.751 62.952C159.847 63.256 159.975 63.504 160.135 63.696C160.295 63.872 160.511 63.96 160.783 63.96C160.975 63.96 161.167 63.92 161.359 63.84C161.567 63.76 161.751 63.672 161.911 63.576C162.087 63.464 162.231 63.368 162.343 63.288C162.455 63.208 162.527 63.168 162.559 63.168C162.751 63.168 162.879 63.232 162.943 63.36C163.007 63.472 163.039 63.64 163.039 63.864C163.039 64.104 162.959 64.36 162.799 64.632C162.655 64.888 162.471 65.128 162.247 65.352C162.023 65.576 161.783 65.76 161.527 65.904C161.271 66.048 161.047 66.12 160.855 66.12ZM165.418 64.896C165.418 63.92 165.426 62.832 165.442 61.632C165.458 60.432 165.474 59.216 165.49 57.984C165.522 56.736 165.546 55.512 165.562 54.312C165.578 53.112 165.586 52.032 165.586 51.072C165.586 50.944 165.602 50.8 165.634 50.64C165.682 50.48 165.746 50.328 165.826 50.184C165.906 50.04 166.002 49.92 166.114 49.824C166.226 49.712 166.354 49.656 166.498 49.656C166.674 49.656 166.826 49.752 166.954 49.944C167.098 50.12 167.17 50.336 167.17 50.592V50.64C167.17 51.536 167.146 52.472 167.098 53.448C167.05 54.424 167.026 55.368 167.026 56.28L166.978 57.6C167.026 57.296 167.146 57.016 167.338 56.76C167.53 56.504 167.754 56.288 168.01 56.112C168.266 55.92 168.538 55.776 168.826 55.68C169.114 55.584 169.386 55.536 169.642 55.536C170.586 55.536 171.354 55.704 171.946 56.04C172.538 56.376 172.994 56.8 173.314 57.312C173.65 57.824 173.874 58.392 173.986 59.016C174.114 59.624 174.178 60.2 174.178 60.744L174.058 64.344C174.058 64.488 174.05 64.672 174.034 64.896C174.018 65.12 173.986 65.336 173.938 65.544C173.89 65.736 173.81 65.904 173.698 66.048C173.586 66.192 173.426 66.264 173.218 66.264C172.946 66.264 172.73 66.152 172.57 65.928C172.426 65.688 172.354 65.4 172.354 65.064C172.354 64.36 172.394 63.704 172.474 63.096C172.57 62.472 172.618 61.824 172.618 61.152V60.912C172.618 60.576 172.594 60.216 172.546 59.832C172.498 59.448 172.37 59.096 172.162 58.776C171.954 58.44 171.65 58.168 171.25 57.96C170.85 57.752 170.306 57.648 169.618 57.648C169.282 57.648 168.954 57.712 168.634 57.84C168.314 57.952 168.034 58.104 167.794 58.296C167.554 58.472 167.354 58.672 167.194 58.896C167.05 59.104 166.978 59.304 166.978 59.496V64.68C166.978 64.84 166.97 65 166.954 65.16C166.938 65.32 166.906 65.472 166.858 65.616C166.826 65.744 166.762 65.848 166.666 65.928C166.57 66.008 166.434 66.048 166.258 66.048C166.194 66.048 166.114 66.04 166.018 66.024C165.922 66.008 165.826 65.96 165.73 65.88C165.65 65.8 165.578 65.688 165.514 65.544C165.45 65.384 165.418 65.168 165.418 64.896ZM178.066 53.064C177.954 53.064 177.826 53.048 177.682 53.016C177.538 52.984 177.402 52.928 177.274 52.848C177.146 52.752 177.034 52.632 176.938 52.488C176.858 52.328 176.818 52.12 176.818 51.864C176.818 51.688 176.85 51.512 176.914 51.336C176.994 51.16 177.09 51.008 177.202 50.88C177.314 50.736 177.434 50.624 177.562 50.544C177.706 50.448 177.842 50.4 177.97 50.4C178.226 50.4 178.474 50.488 178.714 50.664C178.97 50.84 179.098 51.184 179.098 51.696C179.098 52.608 178.754 53.064 178.066 53.064ZM176.722 65.136C176.706 65.056 176.682 64.864 176.65 64.56C176.634 64.24 176.626 63.672 176.626 62.856C176.626 62.536 176.626 62.128 176.626 61.632C176.626 61.12 176.634 60.592 176.65 60.048C176.682 59.488 176.722 58.928 176.77 58.368C176.834 57.808 176.906 57.304 176.986 56.856C177.082 56.408 177.202 56.048 177.346 55.776C177.49 55.488 177.666 55.344 177.874 55.344C178.13 55.344 178.282 55.456 178.33 55.68C178.394 55.904 178.426 56.168 178.426 56.472C178.394 57.144 178.346 57.904 178.282 58.752C178.218 59.584 178.186 60.4 178.186 61.2C178.186 61.792 178.234 62.448 178.33 63.168C178.426 63.872 178.474 64.504 178.474 65.064C178.474 65.448 178.394 65.744 178.234 65.952C178.074 66.144 177.906 66.24 177.73 66.24C177.458 66.24 177.242 66.16 177.082 66C176.922 65.84 176.802 65.552 176.722 65.136Z" fill="white"/>
</svg>
